<svg xmlns="http://www.w3.org/2000/svg" viewBox="0 0 8.61 8.4"><defs><style>.cls-1{fill:#fff;}</style></defs><g id="Calque_2" data-name="Calque 2"><g id="Calque_2_-_copie" data-name="Calque 2 - copie"><polygon class="cls-1" points="3.41 8.28 4.34 8.28 3.41 6.59 3.41 8.28"/><path class="cls-1" d="M3.66,2.12H3.41V3.34h.25a.62.62,0,0,0,.47-.17.52.52,0,0,0,.17-.41.61.61,0,0,0-.17-.46A.63.63,0,0,0,3.66,2.12Z"/><polygon class="cls-1" points="6.78 7.16 7.34 8.16 7.41 8.28 8.61 8.28 8.61 7.16 6.78 7.16"/><path class="cls-1" d="M6.2,7.16l-.14-.25-.14-.25-.7-1.24-.12-.2.12-.06,0,0a2.36,2.36,0,0,0,.38-.26,3.29,3.29,0,0,0,.43-.47,2.35,2.35,0,0,0,.38-.71,2.85,2.85,0,0,0,.15-.94,2.65,2.65,0,0,0-.81-2A2.87,2.87,0,0,0,3.72,0H0V8.4H1.8V5.46H3.36l.05.09,1.5,2.73L5,8.4H6.9l-.07-.12Zm-1.48-4a1.16,1.16,0,0,1-.24.34,1.13,1.13,0,0,1-.82.31H1.8V1.62H3.66A1.11,1.11,0,0,1,4.48,2a1.21,1.21,0,0,1,.24.35,1.34,1.34,0,0,1,.08.46A1.18,1.18,0,0,1,4.72,3.19Z"/></g></g></svg>