<svg xmlns="http://www.w3.org/2000/svg" viewBox="0 0 8.61 8.4"><g id="Calque_2" data-name="Calque 2"><g id="Calque_1-2" data-name="Calque 1"><g id="Calque_2-2" data-name="Calque 2"><g id="Calque_2_-_copie" data-name="Calque 2 - copie"><polygon points="3.41 8.28 4.34 8.28 3.41 6.59 3.41 8.28"/><path d="M3.66,2.12H3.41V3.34h.25a.64.64,0,0,0,.47-.17.49.49,0,0,0,.17-.41.6.6,0,0,0-.17-.46A.63.63,0,0,0,3.66,2.12Z"/><polygon points="6.78 7.16 7.34 8.16 7.41 8.28 8.61 8.28 8.61 7.16 6.78 7.16"/><path d="M6.2,7.16l-.14-.25-.14-.25-.7-1.24-.12-.2.12-.06h0A2.33,2.33,0,0,0,5.6,4.9,3.2,3.2,0,0,0,6,4.43a2.12,2.12,0,0,0,.38-.71,3,3,0,0,0,.15-.94,2.64,2.64,0,0,0-.81-2,2.85,2.85,0,0,0-2-.78H0V8.4H1.8V5.46H3.36l.05.09,1.5,2.73L5,8.4H6.9l-.07-.12Zm-1.48-4a1.16,1.16,0,0,1-.24.34,1.14,1.14,0,0,1-.82.31H1.8V1.62H3.66A1.13,1.13,0,0,1,4.48,2a1.21,1.21,0,0,1,.24.35,1.44,1.44,0,0,1,.08.46,1.23,1.23,0,0,1-.08.38Z"/></g></g></g></g></svg>